<svg xmlns="http://www.w3.org/2000/svg" xmlns:xlink="http://www.w3.org/1999/xlink" width="1000" zoomAndPan="magnify" viewBox="0 0 750 749.999995" height="1000" preserveAspectRatio="xMidYMid meet" version="1.2"><defs><clipPath id="085bdb4521"><path d="M 463 223 L 544 223 L 544 441 L 463 441 Z M 463 223 "/></clipPath><clipPath id="b1d10d8a97"><path d="M 471.519531 218.679688 L 548.980469 227.828125 L 523.296875 445.316406 L 445.835938 436.167969 Z M 471.519531 218.679688 "/></clipPath><clipPath id="341afc5451"><path d="M 470.550781 226.875 L 446.878906 427.328125 C 446.34375 431.851562 449.578125 435.953125 454.105469 436.488281 L 514.597656 443.632812 C 519.121094 444.167969 523.222656 440.933594 523.757812 436.40625 L 547.433594 235.953125 C 547.964844 231.429688 544.730469 227.328125 540.207031 226.792969 L 479.714844 219.648438 C 475.1875 219.113281 471.085938 222.347656 470.550781 226.875 Z M 470.550781 226.875 "/></clipPath><clipPath id="850ee40c4e"><path d="M 471.519531 218.679688 L 548.238281 227.742188 L 522.640625 444.484375 L 445.921875 435.425781 Z M 471.519531 218.679688 "/></clipPath><clipPath id="28f3685c0b"><path d="M 471.519531 218.679688 L 548.238281 227.742188 L 522.640625 444.484375 L 445.921875 435.425781 Z M 471.519531 218.679688 "/></clipPath></defs><g id="fdc2d032f6"><g style="fill:#8e9e60;fill-opacity:1;"><g transform="translate(-28.229958, 444.752219)"><path style="stroke:none" d="M 156.34375 3.640625 C 152.632812 3.640625 149.375 2.648438 146.5625 0.671875 C 143.75 -1.304688 141.03125 -4.273438 138.40625 -8.234375 C 135.78125 -12.203125 133.253906 -17.285156 130.828125 -23.484375 C 128.398438 -29.691406 125.710938 -37.082031 122.765625 -45.65625 C 121.359375 -49.625 120.144531 -53.203125 119.125 -56.390625 C 118.101562 -59.585938 117.113281 -62.5625 116.15625 -65.3125 C 115.195312 -68.0625 114.269531 -70.972656 113.375 -74.046875 C 112.476562 -77.117188 111.453125 -80.570312 110.296875 -84.40625 C 107.609375 -84.144531 105.082031 -84.238281 102.71875 -84.6875 C 100.351562 -85.132812 98.53125 -85.96875 97.25 -87.1875 C 95.976562 -88.40625 95.34375 -89.972656 95.34375 -91.890625 C 95.34375 -94.191406 96.171875 -95.976562 97.828125 -97.25 C 99.492188 -98.53125 101.601562 -99.171875 104.15625 -99.171875 C 106.332031 -99.171875 108.570312 -98.53125 110.875 -97.25 C 113.175781 -95.976562 114.773438 -94.316406 115.671875 -92.265625 C 123.597656 -94.566406 131.140625 -97.507812 138.296875 -101.09375 C 145.460938 -104.675781 152.050781 -108.640625 158.0625 -112.984375 C 164.070312 -117.335938 169.28125 -122.101562 173.6875 -127.28125 C 178.101562 -132.457031 181.523438 -137.921875 183.953125 -143.671875 C 186.390625 -149.429688 187.609375 -155.378906 187.609375 -161.515625 C 187.609375 -167.660156 186.519531 -172.710938 184.34375 -176.671875 C 182.164062 -180.640625 179.191406 -183.550781 175.421875 -185.40625 C 171.648438 -187.257812 167.207031 -188.1875 162.09375 -188.1875 C 155.570312 -188.1875 148.890625 -186.679688 142.046875 -183.671875 C 135.203125 -180.671875 128.488281 -176.421875 121.90625 -170.921875 C 115.320312 -165.421875 108.988281 -158.832031 102.90625 -151.15625 C 96.832031 -143.488281 91.269531 -135.050781 86.21875 -125.84375 C 81.175781 -116.632812 76.800781 -106.722656 73.09375 -96.109375 L 42.015625 -0.1875 C 41.753906 0.707031 41.335938 1.410156 40.765625 1.921875 C 40.191406 2.429688 39.203125 2.6875 37.796875 2.6875 C 36.515625 2.6875 35.617188 2.429688 35.109375 1.921875 C 34.597656 1.410156 34.53125 0.707031 34.90625 -0.1875 L 92.265625 -176.484375 C 88.046875 -170.859375 83.410156 -165.421875 78.359375 -160.171875 C 73.304688 -154.929688 67.773438 -149.941406 61.765625 -145.203125 C 55.753906 -140.472656 49.234375 -135.742188 42.203125 -131.015625 C 41.046875 -130.117188 40.148438 -129.765625 39.515625 -129.953125 C 38.878906 -130.148438 38.238281 -130.828125 37.59375 -131.984375 C 36.957031 -132.878906 36.734375 -133.707031 36.921875 -134.46875 C 37.117188 -135.238281 37.597656 -135.878906 38.359375 -136.390625 C 46.160156 -141.503906 53.515625 -146.96875 60.421875 -152.78125 C 67.328125 -158.601562 73.785156 -164.773438 79.796875 -171.296875 C 85.804688 -177.816406 91.175781 -184.597656 95.90625 -191.640625 C 96.550781 -192.535156 97.222656 -193.207031 97.921875 -193.65625 C 98.628906 -194.101562 99.554688 -194.328125 100.703125 -194.328125 C 102.109375 -194.328125 103.066406 -194.003906 103.578125 -193.359375 C 104.097656 -192.722656 104.164062 -191.828125 103.78125 -190.671875 L 87.09375 -139.078125 C 92.457031 -147.640625 98.207031 -155.34375 104.34375 -162.1875 C 110.488281 -169.03125 116.851562 -174.878906 123.4375 -179.734375 C 130.03125 -184.597656 136.679688 -188.304688 143.390625 -190.859375 C 150.109375 -193.421875 156.726562 -194.703125 163.25 -194.703125 C 169.507812 -194.703125 175.066406 -193.488281 179.921875 -191.0625 C 184.785156 -188.632812 188.5625 -184.957031 191.25 -180.03125 C 193.9375 -175.101562 195.28125 -169.125 195.28125 -162.09375 C 195.28125 -155.1875 193.96875 -148.535156 191.34375 -142.140625 C 188.726562 -135.742188 185.019531 -129.734375 180.21875 -124.109375 C 175.425781 -118.484375 169.769531 -113.304688 163.25 -108.578125 C 156.726562 -103.847656 149.566406 -99.59375 141.765625 -95.8125 C 133.960938 -92.039062 125.773438 -88.878906 117.203125 -86.328125 C 118.097656 -83.128906 118.992188 -80.15625 119.890625 -77.40625 C 120.785156 -74.65625 121.679688 -71.875 122.578125 -69.0625 C 123.472656 -66.25 124.429688 -63.335938 125.453125 -60.328125 C 126.472656 -57.328125 127.5625 -53.972656 128.71875 -50.265625 C 131.144531 -42.847656 133.378906 -36.453125 135.421875 -31.078125 C 137.472656 -25.703125 139.394531 -21.222656 141.1875 -17.640625 C 142.976562 -14.066406 144.703125 -11.285156 146.359375 -9.296875 C 148.023438 -7.316406 149.753906 -5.847656 151.546875 -4.890625 C 153.335938 -3.929688 155.253906 -3.453125 157.296875 -3.453125 C 159.984375 -3.453125 162.796875 -4.25 165.734375 -5.84375 C 168.679688 -7.445312 171.753906 -9.941406 174.953125 -13.328125 C 178.148438 -16.722656 181.664062 -21.101562 185.5 -26.46875 C 186.132812 -27.363281 186.867188 -27.84375 187.703125 -27.90625 C 188.535156 -27.96875 189.398438 -27.742188 190.296875 -27.234375 C 191.191406 -26.472656 191.703125 -25.675781 191.828125 -24.84375 C 191.953125 -24.007812 191.757812 -23.207031 191.25 -22.4375 C 186.90625 -16.5625 182.8125 -11.671875 178.96875 -7.765625 C 175.132812 -3.867188 171.394531 -0.992188 167.75 0.859375 C 164.101562 2.710938 160.300781 3.640625 156.34375 3.640625 Z M 156.34375 3.640625 "/></g></g><g style="fill:#8e9e60;fill-opacity:1;"><g transform="translate(171.448822, 444.752219)"><path style="stroke:none" d="M 43.359375 3.640625 C 36.578125 3.640625 30.851562 2.171875 26.1875 -0.765625 C 21.519531 -3.703125 18 -7.820312 15.625 -13.125 C 13.257812 -18.4375 12.078125 -24.546875 12.078125 -31.453125 C 12.078125 -38.492188 13.289062 -45.945312 15.71875 -53.8125 C 18.15625 -61.675781 21.800781 -69.09375 26.65625 -76.0625 C 31.519531 -83.03125 37.5625 -88.6875 44.78125 -93.03125 C 52.007812 -97.382812 60.484375 -99.5625 70.203125 -99.5625 C 76.859375 -99.5625 82.519531 -98.1875 87.1875 -95.4375 C 91.851562 -92.6875 95.398438 -88.785156 97.828125 -83.734375 C 100.265625 -78.679688 101.484375 -72.765625 101.484375 -65.984375 C 101.484375 -60.617188 100.742188 -54.800781 99.265625 -48.53125 C 97.796875 -42.269531 95.554688 -36.066406 92.546875 -29.921875 C 89.546875 -23.785156 85.710938 -18.191406 81.046875 -13.140625 C 76.378906 -8.085938 70.910156 -4.023438 64.640625 -0.953125 C 58.378906 2.109375 51.285156 3.640625 43.359375 3.640625 Z M 44.125 -3.0625 C 52.300781 -3.0625 59.488281 -5.109375 65.6875 -9.203125 C 71.894531 -13.296875 77.046875 -18.507812 81.140625 -24.84375 C 85.234375 -31.175781 88.332031 -37.921875 90.4375 -45.078125 C 92.550781 -52.242188 93.609375 -58.894531 93.609375 -65.03125 C 93.609375 -70.65625 92.710938 -75.546875 90.921875 -79.703125 C 89.128906 -83.859375 86.410156 -87.085938 82.765625 -89.390625 C 79.128906 -91.691406 74.625 -92.84375 69.25 -92.84375 C 61.320312 -92.84375 54.285156 -90.859375 48.140625 -86.890625 C 42.003906 -82.929688 36.828125 -77.816406 32.609375 -71.546875 C 28.390625 -65.285156 25.191406 -58.601562 23.015625 -51.5 C 20.847656 -44.40625 19.765625 -37.789062 19.765625 -31.65625 C 19.765625 -26.03125 20.691406 -21.039062 22.546875 -16.6875 C 24.398438 -12.34375 27.144531 -8.984375 30.78125 -6.609375 C 34.425781 -4.242188 38.875 -3.0625 44.125 -3.0625 Z M 44.125 -3.0625 "/></g></g><g style="fill:#8e9e60;fill-opacity:1;"><g transform="translate(284.235693, 444.752219)"><path style="stroke:none" d="M -35.296875 3.265625 C -36.191406 3.265625 -36.796875 2.910156 -37.109375 2.203125 C -37.429688 1.503906 -37.492188 0.738281 -37.296875 -0.09375 C -37.109375 -0.925781 -36.628906 -1.691406 -35.859375 -2.390625 C -35.097656 -3.097656 -34.144531 -3.453125 -33 -3.453125 C -28.257812 -3.453125 -22.597656 -5.847656 -16.015625 -10.640625 C -9.429688 -15.441406 -2.367188 -22.0625 5.171875 -30.5 C 12.722656 -38.9375 20.398438 -48.585938 28.203125 -59.453125 C 36.003906 -70.328125 43.421875 -81.90625 50.453125 -94.1875 L 54.671875 -92.265625 C 47.128906 -78.710938 39.328125 -66.113281 31.265625 -54.46875 C 23.210938 -42.832031 15.21875 -32.695312 7.28125 -24.0625 C -0.644531 -15.4375 -8.25 -8.722656 -15.53125 -3.921875 C -22.820312 0.867188 -29.410156 3.265625 -35.296875 3.265625 Z M 40.46875 3.640625 C 35.351562 3.640625 30.332031 2.96875 25.40625 1.625 C 20.488281 0.28125 16.046875 -1.601562 12.078125 -4.03125 C 11.191406 -4.664062 10.710938 -5.460938 10.640625 -6.421875 C 10.578125 -7.378906 10.867188 -8.179688 11.515625 -8.828125 C 12.410156 -9.722656 13.175781 -10.203125 13.8125 -10.265625 C 14.445312 -10.328125 15.28125 -10.039062 16.3125 -9.40625 C 20.53125 -7.101562 24.617188 -5.4375 28.578125 -4.40625 C 32.546875 -3.382812 36.703125 -2.875 41.046875 -2.875 C 48.972656 -2.875 55.078125 -5.015625 59.359375 -9.296875 C 63.648438 -13.585938 65.796875 -19.3125 65.796875 -26.46875 C 65.796875 -29.664062 65.378906 -32.796875 64.546875 -35.859375 C 63.710938 -38.929688 62.65625 -42.066406 61.375 -45.265625 C 60.101562 -48.460938 58.726562 -51.785156 57.25 -55.234375 C 55.78125 -58.691406 54.375 -62.304688 53.03125 -66.078125 C 51.695312 -69.859375 50.613281 -73.921875 49.78125 -78.265625 C 48.945312 -82.609375 48.53125 -87.273438 48.53125 -92.265625 C 48.53125 -96.359375 49.488281 -99.269531 51.40625 -101 C 53.320312 -102.726562 55.242188 -103.59375 57.171875 -103.59375 C 58.316406 -103.59375 59.144531 -103.300781 59.65625 -102.71875 C 60.164062 -102.144531 60.421875 -101.410156 60.421875 -100.515625 C 60.421875 -99.234375 59.878906 -97.601562 58.796875 -95.625 C 57.710938 -93.644531 56.019531 -91.25 53.71875 -88.4375 C 54.351562 -83.445312 55.242188 -78.96875 56.390625 -75 C 57.546875 -71.039062 58.859375 -67.429688 60.328125 -64.171875 C 61.796875 -60.910156 63.296875 -57.835938 64.828125 -54.953125 C 66.367188 -52.078125 67.8125 -49.203125 69.15625 -46.328125 C 70.5 -43.453125 71.550781 -40.414062 72.3125 -37.21875 C 73.082031 -34.019531 73.46875 -30.4375 73.46875 -26.46875 C 73.46875 -17.519531 70.554688 -10.265625 64.734375 -4.703125 C 58.921875 0.859375 50.832031 3.640625 40.46875 3.640625 Z M 40.46875 3.640625 "/></g></g><g style="fill:#8e9e60;fill-opacity:1;"><g transform="translate(389.733594, 444.752219)"><path style="stroke:none" d="M 45.84375 3.265625 C 41.375 3.265625 37.347656 2.523438 33.765625 1.046875 C 30.179688 -0.421875 27.046875 -2.429688 24.359375 -4.984375 C 21.671875 -7.546875 19.460938 -10.582031 17.734375 -14.09375 C 16.015625 -17.613281 14.707031 -21.421875 13.8125 -25.515625 C 12.914062 -29.609375 12.46875 -33.828125 12.46875 -38.171875 C 12.46875 -42.898438 13.039062 -48.015625 14.1875 -53.515625 C 15.34375 -59.015625 17.101562 -64.484375 19.46875 -69.921875 C 21.832031 -75.359375 24.738281 -80.3125 28.1875 -84.78125 C 31.644531 -89.257812 35.707031 -92.84375 40.375 -95.53125 C 45.039062 -98.21875 50.316406 -99.5625 56.203125 -99.5625 C 59.785156 -99.5625 62.757812 -98.859375 65.125 -97.453125 C 67.488281 -96.046875 69.242188 -94.0625 70.390625 -91.5 C 71.546875 -88.945312 72.125 -85.816406 72.125 -82.109375 C 72.125 -76.347656 70.648438 -70.617188 67.703125 -64.921875 C 64.765625 -59.234375 60.195312 -53.253906 54 -46.984375 C 47.800781 -40.722656 39.773438 -33.882812 29.921875 -26.46875 C 22.628906 -20.84375 15.398438 -15.789062 8.234375 -11.3125 C 1.078125 -6.84375 -6.078125 -3.296875 -13.234375 -0.671875 C -20.398438 1.953125 -27.753906 3.265625 -35.296875 3.265625 C -36.066406 3.265625 -36.578125 2.910156 -36.828125 2.203125 C -37.085938 1.503906 -37.148438 0.738281 -37.015625 -0.09375 C -36.890625 -0.925781 -36.539062 -1.691406 -35.96875 -2.390625 C -35.394531 -3.097656 -34.53125 -3.453125 -33.375 -3.453125 C -26.726562 -3.453125 -20.015625 -4.757812 -13.234375 -7.375 C -6.453125 -10 0.382812 -13.484375 7.28125 -17.828125 C 14.1875 -22.179688 21.03125 -27.046875 27.8125 -32.421875 C 35.875 -38.679688 42.648438 -44.59375 48.140625 -50.15625 C 53.640625 -55.71875 57.796875 -61.085938 60.609375 -66.265625 C 63.429688 -71.453125 64.84375 -76.472656 64.84375 -81.328125 C 64.84375 -84.785156 64.007812 -87.597656 62.34375 -89.765625 C 60.675781 -91.941406 58.117188 -93.03125 54.671875 -93.03125 C 48.910156 -93.03125 43.859375 -91.175781 39.515625 -87.46875 C 35.171875 -83.757812 31.523438 -79.023438 28.578125 -73.265625 C 25.640625 -67.515625 23.4375 -61.503906 21.96875 -55.234375 C 20.5 -48.972656 19.765625 -43.285156 19.765625 -38.171875 C 19.765625 -33.441406 20.273438 -28.96875 21.296875 -24.75 C 22.316406 -20.53125 23.910156 -16.785156 26.078125 -13.515625 C 28.253906 -10.253906 31.101562 -7.695312 34.625 -5.84375 C 38.144531 -3.988281 42.332031 -3.0625 47.1875 -3.0625 C 53.195312 -3.0625 58.820312 -4.34375 64.0625 -6.90625 C 69.3125 -9.46875 73.984375 -12.503906 78.078125 -16.015625 C 82.171875 -19.535156 85.429688 -22.570312 87.859375 -25.125 C 88.628906 -26.019531 89.363281 -26.5 90.0625 -26.5625 C 90.769531 -26.632812 91.441406 -26.347656 92.078125 -25.703125 C 92.710938 -25.191406 93.125 -24.582031 93.3125 -23.875 C 93.507812 -23.175781 93.289062 -22.316406 92.65625 -21.296875 C 89.84375 -18.097656 86.066406 -14.578125 81.328125 -10.734375 C 76.597656 -6.898438 71.195312 -3.609375 65.125 -0.859375 C 59.050781 1.890625 52.625 3.265625 45.84375 3.265625 Z M 45.84375 3.265625 "/></g></g><g style="fill:#8e9e60;fill-opacity:1;"><g transform="translate(474.899195, 444.752219)"><path style="stroke:none" d=""/></g></g><g style="fill:#8e9e60;fill-opacity:1;"><g transform="translate(532.443522, 444.752219)"><path style="stroke:none" d="M -35.296875 3.265625 C -36.191406 3.265625 -36.796875 2.910156 -37.109375 2.203125 C -37.429688 1.503906 -37.492188 0.738281 -37.296875 -0.09375 C -37.109375 -0.925781 -36.628906 -1.691406 -35.859375 -2.390625 C -35.097656 -3.097656 -34.144531 -3.453125 -33 -3.453125 C -30.3125 -3.453125 -26.566406 -4.859375 -21.765625 -7.671875 C -16.972656 -10.484375 -11.570312 -14.414062 -5.5625 -19.46875 C 0.445312 -24.519531 6.773438 -30.429688 13.421875 -37.203125 C 20.078125 -43.984375 26.921875 -51.304688 33.953125 -59.171875 C 40.984375 -67.035156 47.820312 -75.253906 54.46875 -83.828125 C 61.125 -92.398438 67.359375 -101 73.171875 -109.625 C 78.992188 -118.257812 84.078125 -126.703125 88.421875 -134.953125 C 92.773438 -143.203125 96.195312 -151.003906 98.6875 -158.359375 C 101.1875 -165.710938 102.4375 -172.265625 102.4375 -178.015625 C 102.4375 -179.171875 102.816406 -180.066406 103.578125 -180.703125 C 104.347656 -181.335938 105.210938 -181.65625 106.171875 -181.65625 C 107.128906 -181.65625 107.992188 -181.335938 108.765625 -180.703125 C 109.535156 -180.066406 109.921875 -179.171875 109.921875 -178.015625 C 109.921875 -172.265625 108.640625 -165.613281 106.078125 -158.0625 C 103.523438 -150.519531 99.976562 -142.460938 95.4375 -133.890625 C 90.894531 -125.328125 85.617188 -116.535156 79.609375 -107.515625 C 73.597656 -98.503906 67.109375 -89.550781 60.140625 -80.65625 C 53.171875 -71.769531 46.039062 -63.203125 38.75 -54.953125 C 31.457031 -46.703125 24.164062 -39.0625 16.875 -32.03125 C 9.59375 -25 2.691406 -18.828125 -3.828125 -13.515625 C -10.359375 -8.210938 -16.304688 -4.085938 -21.671875 -1.140625 C -27.046875 1.796875 -31.585938 3.265625 -35.296875 3.265625 Z M 26.46875 2.875 C 24.164062 2.875 22.25 2.425781 20.71875 1.53125 C 19.1875 0.632812 18.066406 -0.738281 17.359375 -2.59375 C 16.660156 -4.445312 16.40625 -6.78125 16.59375 -9.59375 C 16.78125 -12.40625 17.515625 -15.664062 18.796875 -19.375 L 61.765625 -151.15625 C 66.753906 -166.375 71.835938 -177.5625 77.015625 -184.71875 C 82.191406 -191.882812 87.914062 -195.46875 94.1875 -195.46875 C 97.894531 -195.46875 100.898438 -194.703125 103.203125 -193.171875 C 105.503906 -191.640625 107.195312 -189.5625 108.28125 -186.9375 C 109.375 -184.3125 109.921875 -181.273438 109.921875 -177.828125 C 109.921875 -176.671875 109.535156 -175.773438 108.765625 -175.140625 C 107.992188 -174.503906 107.128906 -174.1875 106.171875 -174.1875 C 105.210938 -174.1875 104.347656 -174.503906 103.578125 -175.140625 C 102.816406 -175.773438 102.4375 -176.671875 102.4375 -177.828125 C 102.4375 -180.128906 102.144531 -182.109375 101.5625 -183.765625 C 100.988281 -185.429688 100.09375 -186.679688 98.875 -187.515625 C 97.664062 -188.347656 96.101562 -188.765625 94.1875 -188.765625 C 90.988281 -188.765625 87.984375 -187.289062 85.171875 -184.34375 C 82.359375 -181.40625 79.507812 -176.832031 76.625 -170.625 C 73.75 -164.425781 70.71875 -156.53125 67.53125 -146.9375 L 26.46875 -19.765625 C 25.320312 -16.304688 24.554688 -13.394531 24.171875 -11.03125 C 23.785156 -8.664062 23.878906 -6.875 24.453125 -5.65625 C 25.035156 -4.445312 26.15625 -3.84375 27.8125 -3.84375 C 30.625 -3.84375 33.40625 -4.769531 36.15625 -6.625 C 38.90625 -8.476562 41.492188 -10.710938 43.921875 -13.328125 C 46.359375 -15.953125 48.40625 -18.285156 50.0625 -20.328125 C 50.832031 -21.222656 51.503906 -21.703125 52.078125 -21.765625 C 52.648438 -21.835938 53.257812 -21.550781 53.90625 -20.90625 C 54.925781 -20.144531 55.4375 -19.472656 55.4375 -18.890625 C 55.4375 -18.316406 55.179688 -17.710938 54.671875 -17.078125 C 53.003906 -14.640625 50.734375 -11.851562 47.859375 -8.71875 C 44.984375 -5.59375 41.691406 -2.878906 37.984375 -0.578125 C 34.273438 1.722656 30.4375 2.875 26.46875 2.875 Z M 26.46875 2.875 "/></g></g><g style="fill:#8e9e60;fill-opacity:1;"><g transform="translate(608.018408, 444.752219)"><path style="stroke:none" d="M 31.265625 3.265625 C 26.921875 3.265625 23.117188 2.113281 19.859375 -0.1875 C 16.597656 -2.488281 14.070312 -5.78125 12.28125 -10.0625 C 10.488281 -14.351562 9.59375 -19.375 9.59375 -25.125 C 9.59375 -31.007812 10.519531 -37.304688 12.375 -44.015625 C 14.226562 -50.734375 16.941406 -57.382812 20.515625 -63.96875 C 24.097656 -70.5625 28.476562 -76.539062 33.65625 -81.90625 C 38.84375 -87.28125 44.726562 -91.566406 51.3125 -94.765625 C 57.894531 -97.960938 65.15625 -99.5625 73.09375 -99.5625 C 77.3125 -99.5625 81.6875 -98.921875 86.21875 -97.640625 C 90.757812 -96.359375 94.953125 -94.441406 98.796875 -91.890625 L 99.9375 -95.90625 C 100.320312 -96.9375 100.863281 -97.675781 101.5625 -98.125 C 102.269531 -98.570312 103.265625 -98.796875 104.546875 -98.796875 C 105.953125 -98.796875 106.878906 -98.410156 107.328125 -97.640625 C 107.773438 -96.867188 107.804688 -95.972656 107.421875 -94.953125 L 82.109375 -17.265625 C 81.210938 -14.328125 80.632812 -11.832031 80.375 -9.78125 C 80.125 -7.738281 80.316406 -6.171875 80.953125 -5.078125 C 81.585938 -3.992188 82.738281 -3.453125 84.40625 -3.453125 C 86.832031 -3.453125 89.390625 -4.378906 92.078125 -6.234375 C 94.765625 -8.085938 97.351562 -10.289062 99.84375 -12.84375 C 102.34375 -15.40625 104.421875 -17.773438 106.078125 -19.953125 C 106.722656 -20.847656 107.332031 -21.296875 107.90625 -21.296875 C 108.476562 -21.296875 109.148438 -20.972656 109.921875 -20.328125 C 110.941406 -19.691406 111.421875 -19.050781 111.359375 -18.40625 C 111.296875 -17.769531 111.007812 -17.132812 110.5 -16.5 C 108.832031 -14.195312 106.59375 -11.476562 103.78125 -8.34375 C 100.96875 -5.207031 97.769531 -2.488281 94.1875 -0.1875 C 90.601562 2.113281 86.894531 3.265625 83.0625 3.265625 C 80.757812 3.265625 78.835938 2.847656 77.296875 2.015625 C 75.765625 1.179688 74.613281 -0.0625 73.84375 -1.71875 C 73.082031 -3.382812 72.765625 -5.492188 72.890625 -8.046875 C 73.023438 -10.609375 73.664062 -13.617188 74.8125 -17.078125 C 76.34375 -22.054688 77.941406 -27.039062 79.609375 -32.03125 C 81.273438 -37.019531 82.875 -42.007812 84.40625 -47 C 78.007812 -35.363281 71.773438 -25.835938 65.703125 -18.421875 C 59.628906 -11.003906 53.742188 -5.535156 48.046875 -2.015625 C 42.359375 1.503906 36.765625 3.265625 31.265625 3.265625 Z M 17.078125 -25.125 C 17.078125 -20.90625 17.648438 -17.164062 18.796875 -13.90625 C 19.953125 -10.644531 21.644531 -8.085938 23.875 -6.234375 C 26.113281 -4.378906 28.960938 -3.453125 32.421875 -3.453125 C 37.660156 -3.453125 43.601562 -6.132812 50.25 -11.5 C 56.90625 -16.875 63.910156 -24.898438 71.265625 -35.578125 C 78.617188 -46.265625 86.066406 -59.660156 93.609375 -75.765625 L 96.6875 -85.5625 C 91.820312 -88.625 87.40625 -90.601562 83.4375 -91.5 C 79.476562 -92.394531 75.644531 -92.84375 71.9375 -92.84375 C 65.28125 -92.84375 59.140625 -91.367188 53.515625 -88.421875 C 47.890625 -85.484375 42.835938 -81.582031 38.359375 -76.71875 C 33.890625 -71.863281 30.054688 -66.460938 26.859375 -60.515625 C 23.660156 -54.578125 21.226562 -48.535156 19.5625 -42.390625 C 17.90625 -36.253906 17.078125 -30.5 17.078125 -25.125 Z M 17.078125 -25.125 "/></g></g><g clip-rule="nonzero" clip-path="url(#085bdb4521)"><g clip-rule="nonzero" clip-path="url(#b1d10d8a97)"><g clip-rule="nonzero" clip-path="url(#341afc5451)"><g clip-rule="nonzero" clip-path="url(#850ee40c4e)"><g clip-rule="nonzero" clip-path="url(#28f3685c0b)"><path style=" stroke:none;fill-rule:nonzero;fill:#d4af37;fill-opacity:1;" d="M 467.15625 328.601562 C 465.71875 341.796875 465.527344 354.8125 469.964844 367.484375 C 472.941406 375.980469 477.71875 383.375 483.925781 389.859375 C 485.160156 391.144531 486.515625 392.304688 488.011719 393.285156 C 488.949219 393.898438 489.402344 394.738281 488.71875 395.734375 C 488.066406 396.683594 487.097656 396.476562 486.265625 395.953125 C 483.964844 394.507812 482.023438 392.628906 480.214844 390.617188 C 469.4375 378.640625 463.902344 364.554688 463.160156 348.492188 C 462.8125 340.980469 463.507812 333.535156 464.160156 326.078125 C 464.234375 325.207031 464.386719 324.304688 465.347656 323.929688 C 466.347656 323.539062 467.128906 324.085938 467.835938 324.6875 C 474.585938 330.414062 480.148438 337.121094 484.507812 344.828125 C 486.097656 347.632812 489.476562 353.8125 492.101562 362.285156 C 492.3125 362.976562 492.480469 363.546875 492.589844 363.929688 C 492.660156 363.667969 492.742188 363.328125 492.816406 362.929688 C 492.9375 362.304688 492.980469 361.839844 492.984375 361.777344 C 494.210938 347.03125 496.925781 332.5 499.4375 317.941406 C 499.667969 316.589844 499.53125 316.078125 498.042969 315.703125 C 492.414062 314.289062 486.839844 312.59375 481.976562 309.28125 C 473.460938 303.480469 469.195312 295.019531 467.359375 285.152344 C 465.320312 274.207031 466.222656 263.355469 468.578125 252.5625 C 470.152344 245.34375 472.476562 238.445312 476.914062 232.414062 C 478.605469 230.113281 480.332031 227.839844 482.621094 226.089844 C 486.480469 223.144531 491.332031 224.199219 493.65625 228.472656 C 494.136719 229.363281 494.230469 230.273438 493.261719 230.894531 C 492.347656 231.476562 491.65625 231 491.03125 230.265625 C 488.011719 226.699219 486.226562 226.625 482.96875 230.078125 C 478.167969 235.175781 474.945312 241.171875 473.039062 247.894531 C 470.507812 256.820312 469.105469 265.917969 469.484375 275.203125 C 469.851562 284.265625 471.503906 293.003906 477.230469 300.46875 C 477.230469 300.46875 478.992188 303.335938 482.359375 305.675781 C 482.59375 305.839844 483.46875 306.449219 483.609375 306.296875 C 483.710938 306.195312 483.410156 305.785156 483.058594 305.230469 C 482.589844 304.503906 482.179688 303.742188 481.789062 302.972656 C 478.894531 297.28125 477.507812 291.164062 477.59375 284.851562 C 477.832031 267.070312 482.269531 250.449219 492.03125 235.425781 C 494.382812 231.808594 497.230469 228.632812 500.996094 226.402344 C 503 225.222656 507.160156 223.078125 512.039062 224.195312 C 512.039062 224.195312 517.277344 225.394531 521.09375 230.417969 C 522.175781 231.839844 522.339844 232.125 522.339844 232.125 C 522.882812 233.0625 522.988281 233.59375 523.402344 233.667969 C 523.730469 233.726562 523.96875 233.449219 524.828125 232.722656 C 525.304688 232.316406 525.832031 231.964844 526.304688 231.546875 C 527.210938 230.742188 530.097656 229.265625 532.78125 229.742188 C 534.730469 230.085938 536.535156 231.289062 538.035156 233.347656 C 541.03125 237.457031 542.136719 242.285156 542.921875 247.171875 C 544.4375 256.59375 543.714844 265.953125 541.910156 275.261719 C 540.257812 283.769531 537.371094 291.824219 533.101562 299.371094 C 529.664062 305.449219 524.949219 310.273438 518.90625 313.769531 C 516.777344 315 514.496094 315.851562 512.015625 316.089844 C 511.34375 316.15625 510.6875 316.144531 510.058594 315.914062 C 508.199219 315.230469 507.84375 313.339844 509.382812 312.089844 C 510.371094 311.289062 511.507812 310.679688 512.503906 309.890625 C 517.632812 305.828125 520.589844 300.300781 522.863281 294.339844 C 524.933594 288.898438 525.582031 283.179688 526.085938 277.4375 C 527.007812 266.980469 526.683594 256.597656 524.242188 246.335938 C 523.109375 241.5625 521.683594 236.910156 518.835938 232.828125 C 517.230469 230.523438 515.246094 228.65625 512.570312 227.671875 C 508.820312 226.289062 505.453125 227.480469 502.265625 229.394531 C 499.378906 231.128906 497.199219 233.625 495.285156 236.355469 C 489.871094 244.070312 486.320312 252.621094 483.980469 261.707031 C 482.351562 268.03125 480.996094 274.402344 480.78125 280.960938 C 480.570312 287.328125 481.261719 293.539062 483.707031 299.5 C 486.269531 305.746094 490.84375 309.769531 497.113281 311.988281 C 498.5 312.476562 499.914062 312.914062 501.347656 313.234375 C 502.800781 313.558594 503.332031 314.414062 503.042969 315.777344 C 501.820312 321.5625 501.097656 327.433594 500.054688 333.25 C 497.996094 344.746094 496.601562 356.324219 495.582031 367.957031 C 494.78125 377.144531 494.433594 386.347656 494.296875 395.570312 C 494.089844 409.617188 495.308594 423.511719 498.160156 437.269531 C 498.261719 437.765625 498.40625 438.261719 498.445312 438.761719 C 498.519531 439.722656 498.21875 440.519531 497.160156 440.695312 C 496.179688 440.859375 495.574219 440.253906 495.367188 439.394531 C 494.898438 437.46875 494.46875 435.53125 494.136719 433.578125 C 492.152344 421.921875 490.9375 410.207031 491.113281 398.355469 C 491.207031 392.039062 491.429688 385.730469 491.527344 379.421875 C 491.636719 372.59375 490.1875 366.003906 487.8125 359.597656 C 485.589844 353.59375 481.289062 340.160156 469.050781 330.085938 C 468.277344 329.449219 467.613281 328.941406 467.15625 328.601562 Z M 516.148438 311.195312 C 517.144531 310.792969 518.628906 310.125 520.292969 309.078125 C 527.121094 304.789062 530.34375 298.398438 532.992188 292.589844 C 538.550781 280.410156 540.9375 267.609375 540.445312 254.273438 C 540.234375 248.65625 539.359375 243.125 537.015625 237.945312 C 535.210938 233.964844 533.457031 233.085938 532.128906 232.914062 C 529.941406 232.628906 527.859375 234.398438 526.105469 235.890625 C 525.847656 236.109375 525.460938 236.46875 525.277344 237.039062 C 525.039062 237.773438 525.257812 238.457031 525.375 238.785156 C 525.820312 240.027344 526.230469 241.285156 526.582031 242.558594 C 530.757812 257.691406 530.570312 272.984375 527.839844 288.269531 C 526.429688 296.179688 524.058594 300.652344 521.644531 304.390625 C 519.671875 307.445312 517.632812 309.707031 516.148438 311.195312 Z M 487.386719 274.101562 C 487.261719 275.171875 487.453125 276.109375 488.703125 276.28125 C 489.964844 276.453125 490.359375 275.609375 490.511719 274.523438 C 491.148438 269.976562 492.03125 265.472656 493.535156 261.132812 C 496.9375 251.335938 500.449219 241.585938 509.609375 235.363281 C 510.265625 234.917969 510.394531 234.171875 510.03125 233.445312 C 509.65625 232.691406 508.9375 232.519531 508.203125 232.699219 C 507.675781 232.828125 507.175781 233.132812 506.707031 233.429688 C 504.175781 235.042969 502.171875 237.21875 500.429688 239.617188 C 493.328125 249.386719 489.6875 260.527344 487.636719 271.984375 C 487.53125 272.886719 487.460938 273.492188 487.386719 274.101562 Z M 489.480469 281.730469 C 489.625 280.847656 489.199219 280.230469 488.300781 280.085938 C 487.355469 279.9375 486.695312 280.339844 486.578125 281.335938 C 486.476562 282.238281 486.980469 282.746094 487.886719 282.96875 C 488.714844 282.984375 489.339844 282.613281 489.480469 281.730469 Z M 489.480469 281.730469 "/><path style=" stroke:none;fill-rule:nonzero;fill:#d4af37;fill-opacity:1;" d="M 467.15625 328.601562 C 465.71875 341.796875 465.527344 354.8125 469.964844 367.484375 C 472.941406 375.980469 477.71875 383.375 483.925781 389.859375 C 485.160156 391.144531 486.515625 392.304688 488.011719 393.285156 C 488.949219 393.898438 489.402344 394.738281 488.71875 395.734375 C 488.066406 396.683594 487.097656 396.476562 486.265625 395.953125 C 483.964844 394.507812 482.023438 392.628906 480.214844 390.617188 C 469.4375 378.640625 463.902344 364.554688 463.160156 348.492188 C 462.8125 340.980469 463.507812 333.535156 464.160156 326.078125 C 464.234375 325.207031 464.386719 324.304688 465.347656 323.929688 C 466.347656 323.539062 467.128906 324.085938 467.835938 324.6875 C 474.585938 330.414062 480.148438 337.121094 484.507812 344.828125 C 486.097656 347.632812 489.476562 353.8125 492.101562 362.285156 C 492.3125 362.976562 492.480469 363.546875 492.589844 363.929688 C 492.660156 363.667969 492.742188 363.328125 492.816406 362.929688 C 492.9375 362.304688 492.980469 361.839844 492.984375 361.777344 C 494.210938 347.03125 496.925781 332.5 499.4375 317.941406 C 499.667969 316.589844 499.53125 316.078125 498.042969 315.703125 C 492.414062 314.289062 486.839844 312.59375 481.976562 309.28125 C 473.460938 303.480469 469.195312 295.019531 467.359375 285.152344 C 465.320312 274.207031 466.222656 263.355469 468.578125 252.5625 C 470.152344 245.34375 472.476562 238.445312 476.914062 232.414062 C 478.605469 230.113281 480.332031 227.839844 482.621094 226.089844 C 486.480469 223.144531 491.332031 224.199219 493.65625 228.472656 C 494.136719 229.363281 494.230469 230.273438 493.261719 230.894531 C 492.347656 231.476562 491.65625 231 491.03125 230.265625 C 488.011719 226.699219 486.226562 226.625 482.96875 230.078125 C 478.167969 235.175781 474.945312 241.171875 473.039062 247.894531 C 470.507812 256.820312 469.105469 265.917969 469.484375 275.203125 C 469.851562 284.265625 471.503906 293.003906 477.230469 300.46875 C 477.230469 300.46875 478.992188 303.335938 482.359375 305.675781 C 482.59375 305.839844 483.46875 306.449219 483.609375 306.296875 C 483.710938 306.195312 483.410156 305.785156 483.058594 305.230469 C 482.589844 304.503906 482.179688 303.742188 481.789062 302.972656 C 478.894531 297.28125 477.507812 291.164062 477.59375 284.851562 C 477.832031 267.070312 482.269531 250.449219 492.03125 235.425781 C 494.382812 231.808594 497.230469 228.632812 500.996094 226.402344 C 503 225.222656 507.160156 223.078125 512.039062 224.195312 C 512.039062 224.195312 517.277344 225.394531 521.09375 230.417969 C 522.175781 231.839844 522.339844 232.125 522.339844 232.125 C 522.882812 233.0625 522.988281 233.59375 523.402344 233.667969 C 523.730469 233.726562 523.96875 233.449219 524.828125 232.722656 C 525.304688 232.316406 525.832031 231.964844 526.304688 231.546875 C 527.210938 230.742188 530.097656 229.265625 532.78125 229.742188 C 534.730469 230.085938 536.535156 231.289062 538.035156 233.347656 C 541.03125 237.457031 542.136719 242.285156 542.921875 247.171875 C 544.4375 256.59375 543.714844 265.953125 541.910156 275.261719 C 540.257812 283.769531 537.371094 291.824219 533.101562 299.371094 C 529.664062 305.449219 524.949219 310.273438 518.90625 313.769531 C 516.777344 315 514.496094 315.851562 512.015625 316.089844 C 511.34375 316.15625 510.6875 316.144531 510.058594 315.914062 C 508.199219 315.230469 507.84375 313.339844 509.382812 312.089844 C 510.371094 311.289062 511.507812 310.679688 512.503906 309.890625 C 517.632812 305.828125 520.589844 300.300781 522.863281 294.339844 C 524.933594 288.898438 525.582031 283.179688 526.085938 277.4375 C 527.007812 266.980469 526.683594 256.597656 524.242188 246.335938 C 523.109375 241.5625 521.683594 236.910156 518.835938 232.828125 C 517.230469 230.523438 515.246094 228.65625 512.570312 227.671875 C 508.820312 226.289062 505.453125 227.480469 502.265625 229.394531 C 499.378906 231.128906 497.199219 233.625 495.285156 236.355469 C 489.871094 244.070312 486.320312 252.621094 483.980469 261.707031 C 482.351562 268.03125 480.996094 274.402344 480.78125 280.960938 C 480.570312 287.328125 481.261719 293.539062 483.707031 299.5 C 486.269531 305.746094 490.84375 309.769531 497.113281 311.988281 C 498.5 312.476562 499.914062 312.914062 501.347656 313.234375 C 502.800781 313.558594 503.332031 314.414062 503.042969 315.777344 C 501.820312 321.5625 501.097656 327.433594 500.054688 333.25 C 497.996094 344.746094 496.601562 356.324219 495.582031 367.957031 C 494.78125 377.144531 494.433594 386.347656 494.296875 395.570312 C 494.089844 409.617188 495.308594 423.511719 498.160156 437.269531 C 498.261719 437.765625 498.40625 438.261719 498.445312 438.761719 C 498.519531 439.722656 498.21875 440.519531 497.160156 440.695312 C 496.179688 440.859375 495.574219 440.253906 495.367188 439.394531 C 494.898438 437.46875 494.46875 435.53125 494.136719 433.578125 C 492.152344 421.921875 490.9375 410.207031 491.113281 398.355469 C 491.207031 392.039062 491.429688 385.730469 491.527344 379.421875 C 491.636719 372.59375 490.1875 366.003906 487.8125 359.597656 C 485.589844 353.59375 481.289062 340.160156 469.050781 330.085938 C 468.277344 329.449219 467.613281 328.941406 467.15625 328.601562 Z M 516.148438 311.195312 C 517.144531 310.792969 518.628906 310.125 520.292969 309.078125 C 527.121094 304.789062 530.34375 298.398438 532.992188 292.589844 C 538.550781 280.410156 540.9375 267.609375 540.445312 254.273438 C 540.234375 248.65625 539.359375 243.125 537.015625 237.945312 C 535.210938 233.964844 533.457031 233.085938 532.128906 232.914062 C 529.941406 232.628906 527.859375 234.398438 526.105469 235.890625 C 525.847656 236.109375 525.460938 236.46875 525.277344 237.039062 C 525.039062 237.773438 525.257812 238.457031 525.375 238.785156 C 525.820312 240.027344 526.230469 241.285156 526.582031 242.558594 C 530.757812 257.691406 530.570312 272.984375 527.839844 288.269531 C 526.429688 296.179688 524.058594 300.652344 521.644531 304.390625 C 519.671875 307.445312 517.632812 309.707031 516.148438 311.195312 Z M 487.386719 274.101562 C 487.261719 275.171875 487.453125 276.109375 488.703125 276.28125 C 489.964844 276.453125 490.359375 275.609375 490.511719 274.523438 C 491.148438 269.976562 492.03125 265.472656 493.535156 261.132812 C 496.9375 251.335938 500.449219 241.585938 509.609375 235.363281 C 510.265625 234.917969 510.394531 234.171875 510.03125 233.445312 C 509.65625 232.691406 508.9375 232.519531 508.203125 232.699219 C 507.675781 232.828125 507.175781 233.132812 506.707031 233.429688 C 504.175781 235.042969 502.171875 237.21875 500.429688 239.617188 C 493.328125 249.386719 489.6875 260.527344 487.636719 271.984375 C 487.53125 272.886719 487.460938 273.492188 487.386719 274.101562 Z M 489.480469 281.730469 C 489.625 280.847656 489.199219 280.230469 488.300781 280.085938 C 487.355469 279.9375 486.695312 280.339844 486.578125 281.335938 C 486.476562 282.238281 486.980469 282.746094 487.886719 282.96875 C 488.714844 282.984375 489.339844 282.613281 489.480469 281.730469 Z M 489.480469 281.730469 "/></g></g></g></g></g></g></svg>