<svg xmlns="http://www.w3.org/2000/svg" xmlns:xlink="http://www.w3.org/1999/xlink" width="1000" zoomAndPan="magnify" viewBox="0 0 750 749.999995" height="1000" preserveAspectRatio="xMidYMid meet" version="1.2"><defs><clipPath id="4b56b02cdf"><path d="M 44 225.128906 L 564 225.128906 L 564 452 L 44 452 Z M 44 225.128906 "/></clipPath><clipPath id="e8194054b3"><path d="M 526.257812 272.816406 L 689.335938 272.816406 L 689.335938 447.3125 L 526.257812 447.3125 Z M 526.257812 272.816406 "/></clipPath><clipPath id="ddaf60d8ad"><path d="M 564.378906 418.15625 L 635.300781 418.15625 L 635.300781 487.453125 L 564.378906 487.453125 Z M 564.378906 418.15625 "/></clipPath><clipPath id="fafe628175"><path d="M 229.507812 418.15625 L 300.429688 418.15625 L 300.429688 487.453125 L 229.507812 487.453125 Z M 229.507812 418.15625 "/></clipPath></defs><g id="29fc36abf4"><rect x="0" width="750" y="0" height="749.999995" style="fill:#ffffff;fill-opacity:1;stroke:none;"/><rect x="0" width="750" y="0" height="749.999995" style="fill:#fff8f6;fill-opacity:1;stroke:none;"/><g clip-rule="nonzero" clip-path="url(#4b56b02cdf)"><path style=" stroke:none;fill-rule:nonzero;fill:#cc7b87;fill-opacity:1;" d="M 562.867188 239.652344 L 520.890625 437.054688 C 519.195312 445.046875 511.3125 451.554688 503.320312 451.554688 L 310.160156 451.554688 C 307.558594 451.554688 305.761719 449.546875 306.097656 446.972656 C 308.753906 426.699219 294.855469 410.796875 274.449219 410.796875 C 254.101562 410.796875 233.460938 426.644531 227.449219 446.894531 C 226.695312 449.496094 224.015625 451.554688 221.359375 451.554688 L 197.46875 451.554688 C 189.453125 451.554688 184.324219 445.046875 186.015625 437.054688 L 189.296875 421.621094 L 57.113281 421.621094 C 49.929688 421.621094 44.101562 415.792969 44.101562 408.609375 C 44.101562 401.425781 49.929688 395.597656 57.113281 395.597656 L 228.410156 395.597656 C 235.59375 395.597656 241.425781 389.765625 241.425781 382.585938 C 241.425781 375.402344 235.59375 369.570312 228.410156 369.570312 L 132.769531 369.570312 C 125.585938 369.570312 119.757812 363.742188 119.757812 356.558594 C 119.757812 349.375 125.585938 343.546875 132.769531 343.546875 L 239.472656 343.546875 C 246.65625 343.546875 252.484375 337.714844 252.484375 330.535156 C 252.484375 323.351562 246.65625 317.519531 239.472656 317.519531 L 88.445312 317.519531 C 81.261719 317.519531 75.433594 311.691406 75.433594 304.507812 C 75.433594 297.324219 81.261719 291.496094 88.445312 291.496094 L 250.535156 291.496094 C 257.71875 291.496094 263.546875 285.664062 263.546875 278.480469 C 263.546875 271.300781 257.71875 265.46875 250.535156 265.46875 L 132.769531 265.46875 C 125.585938 265.46875 119.757812 259.640625 119.757812 252.457031 C 119.757812 245.273438 125.585938 239.445312 132.769531 239.445312 L 228.050781 239.445312 C 229.820312 231.53125 237.679688 225.128906 245.589844 225.128906 L 551.417969 225.128906 C 559.433594 225.128906 564.558594 231.636719 562.867188 239.652344 "/></g><g clip-rule="nonzero" clip-path="url(#e8194054b3)"><path style=" stroke:none;fill-rule:nonzero;fill:#cc7b87;fill-opacity:1;" d="M 683.222656 349.398438 L 676.945312 343.382812 C 675.835938 342.335938 674.847656 341.097656 674 339.699219 L 637.101562 279.085938 C 634.6875 275.128906 630.355469 272.859375 625.210938 272.859375 L 567.929688 272.859375 C 564.582031 272.859375 561.285156 275.582031 560.574219 278.925781 L 526.53125 439.085938 C 525.578125 443.578125 528.457031 447.234375 532.945312 447.234375 L 562.199219 447.234375 L 562.570312 446.066406 C 568.964844 425.957031 589.0625 410.796875 609.320312 410.796875 C 629.578125 410.796875 643.230469 425.957031 641.078125 446.066406 L 640.953125 447.234375 L 655.1875 447.234375 C 664.617188 447.234375 673.917969 439.5625 675.921875 430.132812 L 688.75 369.78125 C 690.445312 361.796875 688.433594 354.367188 683.222656 349.398438 "/></g><g clip-rule="nonzero" clip-path="url(#ddaf60d8ad)"><path style=" stroke:none;fill-rule:nonzero;fill:#cc7b87;fill-opacity:1;" d="M 596.195312 470.1875 C 586.640625 470.1875 580.515625 462.410156 582.546875 452.851562 C 584.582031 443.296875 594.007812 435.519531 603.5625 435.519531 C 613.121094 435.519531 619.246094 443.296875 617.214844 452.851562 C 615.183594 462.410156 605.753906 470.1875 596.195312 470.1875 Z M 607.234375 418.253906 C 588.15625 418.253906 569.335938 433.773438 565.277344 452.851562 C 561.226562 471.933594 573.449219 487.453125 592.527344 487.453125 C 611.601562 487.453125 630.425781 471.933594 634.480469 452.851562 C 638.535156 433.773438 626.3125 418.253906 607.234375 418.253906 "/></g><g clip-rule="nonzero" clip-path="url(#fafe628175)"><path style=" stroke:none;fill-rule:nonzero;fill:#cc7b87;fill-opacity:1;" d="M 261.332031 470.1875 C 251.777344 470.1875 245.652344 462.410156 247.683594 452.851562 C 249.714844 443.296875 259.140625 435.523438 268.699219 435.523438 C 278.257812 435.523438 284.378906 443.296875 282.347656 452.851562 C 280.316406 462.410156 270.890625 470.1875 261.332031 470.1875 Z M 272.371094 418.253906 C 253.292969 418.253906 234.46875 433.777344 230.414062 452.851562 C 226.359375 471.933594 238.582031 487.453125 257.664062 487.453125 C 276.738281 487.453125 295.5625 471.933594 299.617188 452.851562 C 303.671875 433.777344 291.449219 418.253906 272.371094 418.253906 "/></g><path style=" stroke:none;fill-rule:nonzero;fill:#ffffff;fill-opacity:1;" d="M 617.589844 288.464844 L 584.210938 288.464844 C 578.664062 288.464844 573.207031 292.964844 572.023438 298.515625 L 562.835938 341.746094 C 561.65625 347.296875 565.199219 351.796875 570.75 351.796875 L 632.539062 351.796875 C 640.53125 351.796875 647.214844 342.910156 644.246094 336.226562 L 625.023438 292.996094 C 623.769531 290.167969 620.976562 288.464844 617.589844 288.464844 "/><path style=" stroke:none;fill-rule:nonzero;fill:#cc7b87;fill-opacity:1;" d="M 100.183594 252.453125 C 100.183594 259.636719 94.355469 265.46875 87.171875 265.46875 L 63.148438 265.46875 C 55.96875 265.46875 50.136719 259.636719 50.136719 252.453125 C 50.136719 245.273438 55.96875 239.441406 63.148438 239.441406 L 87.171875 239.441406 C 94.355469 239.441406 100.183594 245.273438 100.183594 252.453125 "/><path style=" stroke:none;fill-rule:nonzero;fill:#cc7b87;fill-opacity:1;" d="M 82.148438 356.558594 C 82.148438 363.742188 76.320312 369.570312 69.136719 369.570312 L 45.089844 369.570312 C 37.90625 369.570312 32.074219 363.742188 32.074219 356.558594 C 32.074219 349.375 37.90625 343.546875 45.089844 343.546875 L 69.136719 343.546875 C 76.320312 343.546875 82.148438 349.375 82.148438 356.558594 "/><g style="fill:#f4ecee;fill-opacity:1;"><g transform="translate(288.379489, 312.003624)"><path style="stroke:none" d="M 24.8125 1.140625 C 18.445312 1.140625 13.15625 -1.140625 8.9375 -5.703125 C 4.71875 -10.273438 2.609375 -16.066406 2.609375 -23.078125 C 2.609375 -30.148438 4.75 -35.945312 9.03125 -40.46875 C 13.320312 -45 18.582031 -47.265625 24.8125 -47.265625 C 31.144531 -47.265625 36.425781 -45.007812 40.65625 -40.5 C 44.894531 -35.988281 47.015625 -30.179688 47.015625 -23.078125 C 47.015625 -15.960938 44.867188 -10.144531 40.578125 -5.625 C 36.296875 -1.113281 31.039062 1.140625 24.8125 1.140625 Z M 24.8125 -44.40625 C 20.269531 -44.40625 16.742188 -42.488281 14.234375 -38.65625 C 11.734375 -34.820312 10.484375 -29.628906 10.484375 -23.078125 C 10.484375 -16.484375 11.738281 -11.285156 14.25 -7.484375 C 16.769531 -3.691406 20.289062 -1.796875 24.8125 -1.796875 C 29.363281 -1.796875 32.882812 -3.695312 35.375 -7.5 C 37.875 -11.3125 39.125 -16.503906 39.125 -23.078125 C 39.125 -29.679688 37.863281 -34.882812 35.34375 -38.6875 C 32.832031 -42.5 29.320312 -44.40625 24.8125 -44.40625 Z M 24.8125 -44.40625 "/></g></g><g style="fill:#f4ecee;fill-opacity:1;"><g transform="translate(337.98983, 312.003624)"><path style="stroke:none" d="M 35.75 0 C 30.988281 -7.488281 26.070312 -14.46875 21 -20.9375 L 16.34375 -20.9375 L 16.34375 -6.28125 C 16.34375 -4.738281 16.707031 -3.753906 17.4375 -3.328125 C 18.164062 -2.910156 19.925781 -2.582031 22.71875 -2.34375 L 22.71875 0 L 3.1875 0 L 3.1875 -2.34375 C 5.882812 -2.5625 7.59375 -2.910156 8.3125 -3.390625 C 9.039062 -3.867188 9.40625 -4.832031 9.40625 -6.28125 L 9.40625 -39.6875 C 9.40625 -41.09375 9.015625 -42.085938 8.234375 -42.671875 C 7.453125 -43.265625 5.769531 -43.671875 3.1875 -43.890625 L 3.1875 -46.1875 L 24.546875 -46.1875 C 28.992188 -46.1875 32.523438 -45.226562 35.140625 -43.3125 C 37.753906 -41.394531 39.0625 -38.6875 39.0625 -35.1875 C 39.0625 -29.070312 35.304688 -24.914062 27.796875 -22.71875 C 29.335938 -20.769531 32.390625 -16.691406 36.953125 -10.484375 C 39.316406 -7.242188 40.816406 -5.367188 41.453125 -4.859375 C 42.097656 -4.359375 42.835938 -3.847656 43.671875 -3.328125 C 44.503906 -2.804688 46.019531 -2.476562 48.21875 -2.34375 L 48.21875 0 Z M 16.34375 -43.53125 L 16.34375 -23.734375 L 20.609375 -23.734375 C 23.734375 -23.734375 26.253906 -24.726562 28.171875 -26.71875 C 30.097656 -28.71875 31.0625 -31.300781 31.0625 -34.46875 C 31.0625 -37.332031 30.238281 -39.554688 28.59375 -41.140625 C 26.957031 -42.734375 24.71875 -43.53125 21.875 -43.53125 Z M 16.34375 -43.53125 "/></g></g><g style="fill:#f4ecee;fill-opacity:1;"><g transform="translate(384.800638, 312.003624)"><path style="stroke:none" d="M 3.0625 0 L 3.0625 -2.34375 C 5.6875 -2.34375 7.398438 -2.644531 8.203125 -3.25 C 9.003906 -3.863281 9.40625 -4.820312 9.40625 -6.125 L 9.40625 -39.453125 C 9.40625 -40.890625 8.941406 -41.925781 8.015625 -42.5625 C 7.097656 -43.207031 5.535156 -43.648438 3.328125 -43.890625 L 3.328125 -46.1875 L 23.53125 -46.1875 C 30.039062 -46.1875 35.644531 -44.160156 40.34375 -40.109375 C 45.050781 -36.066406 47.40625 -30.289062 47.40625 -22.78125 C 47.40625 -15.75 44.976562 -10.191406 40.125 -6.109375 C 35.269531 -2.035156 29.296875 0 22.203125 0 Z M 16.34375 -43.390625 L 16.34375 -7.9375 C 16.34375 -5.96875 16.910156 -4.597656 18.046875 -3.828125 C 19.191406 -3.054688 20.957031 -2.671875 23.34375 -2.671875 C 28.59375 -2.671875 32.585938 -4.40625 35.328125 -7.875 C 38.078125 -11.351562 39.453125 -16.347656 39.453125 -22.859375 C 39.453125 -28.972656 37.828125 -33.945312 34.578125 -37.78125 C 31.335938 -41.613281 27.082031 -43.53125 21.8125 -43.53125 C 19.550781 -43.53125 17.726562 -43.484375 16.34375 -43.390625 Z M 16.34375 -43.390625 "/></g></g><g style="fill:#f4ecee;fill-opacity:1;"><g transform="translate(434.736506, 312.003624)"><path style="stroke:none" d="M 41.15625 0 L 2.796875 0 L 2.796875 -2.34375 C 5.703125 -2.582031 7.53125 -2.957031 8.28125 -3.46875 C 9.03125 -3.976562 9.40625 -4.914062 9.40625 -6.28125 L 9.40625 -39.453125 C 9.40625 -40.972656 8.820312 -42.046875 7.65625 -42.671875 C 6.5 -43.304688 4.878906 -43.710938 2.796875 -43.890625 L 2.796875 -46.1875 L 38.546875 -46.1875 L 38.546875 -35.0625 L 36.140625 -35.0625 C 35.679688 -36.75 34.816406 -38.394531 33.546875 -40 C 32.273438 -41.613281 31.179688 -42.613281 30.265625 -43 C 29.359375 -43.394531 27.140625 -43.59375 23.609375 -43.59375 L 16.34375 -43.59375 L 16.34375 -25.265625 L 21.546875 -25.265625 C 24.003906 -25.265625 25.773438 -25.8125 26.859375 -26.90625 C 27.941406 -28 28.703125 -29.96875 29.140625 -32.8125 L 31.546875 -32.8125 L 31.546875 -14.75 L 29.140625 -14.75 C 29.023438 -15.832031 28.71875 -17.101562 28.21875 -18.5625 C 27.71875 -20.03125 27.003906 -21.066406 26.078125 -21.671875 C 25.160156 -22.285156 23.648438 -22.59375 21.546875 -22.59375 L 16.34375 -22.59375 L 16.34375 -8.71875 C 16.34375 -6.070312 16.757812 -4.398438 17.59375 -3.703125 C 18.425781 -3.015625 20.625 -2.671875 24.1875 -2.671875 L 27.015625 -2.671875 C 30.054688 -2.671875 32.109375 -2.910156 33.171875 -3.390625 C 34.234375 -3.867188 35.40625 -5.179688 36.6875 -7.328125 C 37.96875 -9.472656 38.96875 -11.566406 39.6875 -13.609375 L 42 -13.609375 Z M 41.15625 0 "/></g></g><g style="fill:#f4ecee;fill-opacity:1;"><g transform="translate(478.259495, 312.003624)"><path style="stroke:none" d="M 35.75 0 C 30.988281 -7.488281 26.070312 -14.46875 21 -20.9375 L 16.34375 -20.9375 L 16.34375 -6.28125 C 16.34375 -4.738281 16.707031 -3.753906 17.4375 -3.328125 C 18.164062 -2.910156 19.925781 -2.582031 22.71875 -2.34375 L 22.71875 0 L 3.1875 0 L 3.1875 -2.34375 C 5.882812 -2.5625 7.59375 -2.910156 8.3125 -3.390625 C 9.039062 -3.867188 9.40625 -4.832031 9.40625 -6.28125 L 9.40625 -39.6875 C 9.40625 -41.09375 9.015625 -42.085938 8.234375 -42.671875 C 7.453125 -43.265625 5.769531 -43.671875 3.1875 -43.890625 L 3.1875 -46.1875 L 24.546875 -46.1875 C 28.992188 -46.1875 32.523438 -45.226562 35.140625 -43.3125 C 37.753906 -41.394531 39.0625 -38.6875 39.0625 -35.1875 C 39.0625 -29.070312 35.304688 -24.914062 27.796875 -22.71875 C 29.335938 -20.769531 32.390625 -16.691406 36.953125 -10.484375 C 39.316406 -7.242188 40.816406 -5.367188 41.453125 -4.859375 C 42.097656 -4.359375 42.835938 -3.847656 43.671875 -3.328125 C 44.503906 -2.804688 46.019531 -2.476562 48.21875 -2.34375 L 48.21875 0 Z M 16.34375 -43.53125 L 16.34375 -23.734375 L 20.609375 -23.734375 C 23.734375 -23.734375 26.253906 -24.726562 28.171875 -26.71875 C 30.097656 -28.71875 31.0625 -31.300781 31.0625 -34.46875 C 31.0625 -37.332031 30.238281 -39.554688 28.59375 -41.140625 C 26.957031 -42.734375 24.71875 -43.53125 21.875 -43.53125 Z M 16.34375 -43.53125 "/></g></g><g style="fill:#f4ecee;fill-opacity:1;"><g transform="translate(312.777925, 405.003619)"><path style="stroke:none" d="M 50.59375 -43.890625 C 47.425781 -43.472656 45.378906 -42.773438 44.453125 -41.796875 C 43.523438 -40.816406 43.0625 -38 43.0625 -33.34375 L 43.0625 0.453125 L 40.265625 0.453125 L 12.265625 -37.34375 L 12.265625 -13.546875 C 12.265625 -10.679688 12.4375 -8.585938 12.78125 -7.265625 C 13.132812 -5.941406 13.554688 -5.035156 14.046875 -4.546875 C 14.535156 -4.054688 15.476562 -3.585938 16.875 -3.140625 C 18.28125 -2.691406 19.503906 -2.425781 20.546875 -2.34375 L 20.546875 0 L 1.53125 0 L 1.53125 -2.34375 C 4.113281 -2.707031 6.023438 -3.289062 7.265625 -4.09375 C 8.515625 -4.90625 9.140625 -7.914062 9.140625 -13.125 L 9.140625 -35.9375 C 9.140625 -40.425781 6.363281 -43.078125 0.8125 -43.890625 L 0.8125 -46.1875 L 13.9375 -46.1875 L 39.9375 -11 L 39.9375 -32.9375 C 39.9375 -37.894531 39.320312 -40.851562 38.09375 -41.8125 C 36.875 -42.78125 34.78125 -43.472656 31.8125 -43.890625 L 31.8125 -46.1875 L 50.59375 -46.1875 Z M 50.59375 -43.890625 "/></g></g><g style="fill:#f4ecee;fill-opacity:1;"><g transform="translate(363.91825, 405.003619)"><path style="stroke:none" d="M 24.8125 1.140625 C 18.445312 1.140625 13.15625 -1.140625 8.9375 -5.703125 C 4.71875 -10.273438 2.609375 -16.066406 2.609375 -23.078125 C 2.609375 -30.148438 4.75 -35.945312 9.03125 -40.46875 C 13.320312 -45 18.582031 -47.265625 24.8125 -47.265625 C 31.144531 -47.265625 36.425781 -45.007812 40.65625 -40.5 C 44.894531 -35.988281 47.015625 -30.179688 47.015625 -23.078125 C 47.015625 -15.960938 44.867188 -10.144531 40.578125 -5.625 C 36.296875 -1.113281 31.039062 1.140625 24.8125 1.140625 Z M 24.8125 -44.40625 C 20.269531 -44.40625 16.742188 -42.488281 14.234375 -38.65625 C 11.734375 -34.820312 10.484375 -29.628906 10.484375 -23.078125 C 10.484375 -16.484375 11.738281 -11.285156 14.25 -7.484375 C 16.769531 -3.691406 20.289062 -1.796875 24.8125 -1.796875 C 29.363281 -1.796875 32.882812 -3.695312 35.375 -7.5 C 37.875 -11.3125 39.125 -16.503906 39.125 -23.078125 C 39.125 -29.679688 37.863281 -34.882812 35.34375 -38.6875 C 32.832031 -42.5 29.320312 -44.40625 24.8125 -44.40625 Z M 24.8125 -44.40625 "/></g></g><g style="fill:#f4ecee;fill-opacity:1;"><g transform="translate(413.528591, 405.003619)"><path style="stroke:none" d="M 66.015625 -43.890625 C 64.972656 -43.796875 63.988281 -43.535156 63.0625 -43.109375 C 62.144531 -42.691406 61.390625 -42.160156 60.796875 -41.515625 C 60.203125 -40.878906 59.816406 -40.34375 59.640625 -39.90625 C 59.460938 -39.476562 58.507812 -36.429688 56.78125 -30.765625 L 47.140625 0.59375 L 44.140625 0.59375 L 32.453125 -34.9375 L 20.34375 0.59375 L 17.484375 0.59375 L 6.015625 -39.78125 C 5.285156 -42.1875 3.238281 -43.554688 -0.125 -43.890625 L -0.125 -46.1875 L 18.71875 -46.1875 L 18.71875 -43.890625 C 14.726562 -43.628906 12.734375 -43.0625 12.734375 -42.1875 C 12.734375 -41.664062 12.953125 -40.585938 13.390625 -38.953125 C 13.835938 -37.316406 16.484375 -28.085938 21.328125 -11.265625 L 32.875 -45.546875 L 36.078125 -45.546875 L 47.65625 -10.546875 C 53 -28.691406 55.671875 -38.847656 55.671875 -41.015625 C 55.671875 -42.554688 53.53125 -43.515625 49.25 -43.890625 L 49.25 -46.1875 L 66.015625 -46.1875 Z M 66.015625 -43.890625 "/></g></g><g style="fill:#f4ecee;fill-opacity:1;"><g transform="translate(478.601479, 405.003619)"><path style="stroke:none" d="M 12.40625 -14.0625 L 9.859375 -14.0625 C 9.378906 -19.789062 8.785156 -25.835938 8.078125 -32.203125 C 7.359375 -38.316406 7 -41.914062 7 -43 C 7 -44.238281 7.394531 -45.28125 8.1875 -46.125 C 8.976562 -46.976562 9.984375 -47.40625 11.203125 -47.40625 C 12.367188 -47.40625 13.347656 -46.992188 14.140625 -46.171875 C 14.929688 -45.359375 15.328125 -44.300781 15.328125 -43 C 15.328125 -41.695312 14.992188 -38.070312 14.328125 -32.125 Z M 11.203125 0.65625 C 10.003906 0.65625 8.957031 0.238281 8.0625 -0.59375 C 7.175781 -1.4375 6.734375 -2.488281 6.734375 -3.75 C 6.734375 -4.976562 7.175781 -6.023438 8.0625 -6.890625 C 8.957031 -7.765625 10.003906 -8.203125 11.203125 -8.203125 C 12.367188 -8.203125 13.398438 -7.769531 14.296875 -6.90625 C 15.203125 -6.050781 15.65625 -5 15.65625 -3.75 C 15.65625 -2.46875 15.207031 -1.410156 14.3125 -0.578125 C 13.425781 0.242188 12.390625 0.65625 11.203125 0.65625 Z M 11.203125 0.65625 "/></g></g></g></svg>